<?xml version="1.0" encoding="UTF-8" standalone="no"?>
<svg width="64px" height="64px" viewBox="0 0 2200 2210" version="1.1" xmlns="http://www.w3.org/2000/svg" xmlns:xlink="http://www.w3.org/1999/xlink" xmlns:sketch="http://www.bohemiancoding.com/sketch/ns">
    <!-- Generator: Sketch Beta 3.1.1 (8761) - http://www.bohemiancoding.com/sketch -->
    <title>Group</title>
    <desc>Created with Sketch Beta.</desc>
    <defs></defs>
    <g id="Page-1" stroke="none" stroke-width="1" fill="none" fill-rule="evenodd" sketch:type="MSPage">
        <g id="Group" sketch:type="MSLayerGroup" transform="translate(-100.000000, -100.000000)" fill="#ffffff">
            <path d="M109.200629,1195.10332 C109.134324,1388.10052 159.557814,1576.52532 255.406648,1742.59025 L100,2310.03403 L680.675267,2157.76521 C840.6696,2245.02272 1020.78913,2291.00871 1204.10709,2291.0845 L1204.57492,2291.0845 C1808.23597,2291.0845 2299.68344,1799.74198 2299.93604,1195.95275 C2300.03707,903.310285 2186.18797,628.161632 1979.39798,421.172543 C1772.57643,214.183455 1497.58054,100.126309 1204.57492,100 C600.787567,100 109.434813,591.247788 109.182222,1195.06859 L109.200629,1195.10332 Z M454.979379,1713.97808 L433.303593,1679.54621 C342.15611,1534.61911 294.050143,1367.12057 294.116449,1195.15069 C294.315364,693.292935 702.714058,284.967092 1204.89665,284.967092 C1448.08501,285.061823 1676.64203,379.878931 1848.56182,551.908809 C2020.46266,723.951319 2115.0517,952.656105 2114.98539,1195.86434 C2114.76264,1697.75367 1706.35621,2106.11109 1204.5525,2106.11109 L1204.19606,2106.11109 C1040.80438,2106.01636 880.563768,2062.15236 740.817766,1979.21778 L707.557839,1959.50029 L362.960489,2049.85553 L454.979379,1713.97808 Z M1204.57492,2291.0845 L1204.58605,2291.0845 L1204.57492,2291.0845 C1204.56378,2291.0845 1204.55264,2291.0845 1204.57492,2291.0845 L1204.57492,2291.0845 Z" id="Shape" sketch:type="MSShapeGroup"></path>
            <path d="M963.696122,728.876852 C943.190148,683.291886 921.614451,682.379303 902.111264,681.57724 C886.14972,680.898328 867.894648,680.942537 849.660731,680.942537 C831.404713,680.942537 801.75368,687.793544 776.68086,715.184942 C751.585623,742.577603 680.879387,808.792639 680.879387,943.460277 C680.879387,1078.14055 778.966809,1208.27369 792.631985,1226.55377 C806.321158,1244.80071 981.977399,1530.00199 1260.14646,1639.71094 C1491.34937,1730.89035 1538.39761,1712.75551 1588.57798,1708.18628 C1638.75835,1703.62999 1750.51095,1641.99398 1773.31045,1578.07524 C1796.12226,1514.16598 1796.12226,1459.38255 1789.28305,1447.9421 C1782.44383,1436.53481 1764.18781,1429.6838 1736.81988,1416.00484 C1709.44122,1402.31419 1574.88691,1336.08905 1549.80462,1326.95375 C1524.70938,1317.83012 1506.46315,1313.27384 1488.20714,1340.67786 C1469.96217,1368.04811 1417.54479,1429.68475 1401.57156,1447.94274 C1385.61002,1466.23419 1369.63774,1468.51786 1342.26949,1454.8269 C1314.89083,1441.09173 1226.74066,1412.21651 1122.17112,1318.97827 C1040.80523,1246.42631 985.8793,1156.82892 969.906073,1129.423 C953.944528,1102.05276 968.20203,1087.22628 981.924671,1073.57858 C994.221751,1061.31364 1009.30333,1041.61921 1022.99282,1025.64426 C1036.64852,1009.65889 1041.20432,998.251599 1050.32696,979.992983 C1059.46065,961.72363 1054.89381,945.737946 1048.05459,932.046037 C1041.20432,918.35539 988.016852,782.994946 963.679703,728.868326" id="Shape" sketch:type="MSShapeGroup"></path>
        </g>
    </g>
</svg>